<?xml version="1.0" encoding="UTF-8" standalone="no"?>
<svg xmlns="http://www.w3.org/2000/svg" width="200" height="75">
<path fill="#0063af" d="m 200,37.755506 c 0,9.612431 -10.53487,18.831289 -29.28844,25.628629 C 151.95798,70.18149 126.52265,74 100.00078,74 73.478894,74 48.04357,70.18149 29.289414,63.384135 10.535816,56.586795 0,47.367937 0,37.755506 0,28.143081 10.535816,18.924225 29.289414,12.126884 48.04357,5.329543 73.478894,1.5110166 100.00078,1.5110166 c 26.52187,0 51.9572,3.8185264 70.71078,10.6158674 C 189.46513,18.924225 200,28.143081 200,37.755506 Z" />
<path fill="#000" d="m 33.054975,7.9625429 c -1.401454,0 -2.537114,1.1356611 -2.537114,2.5371151 0,0.710392 0.292524,1.351715 0.762834,1.812224 -0.01281,0.01255 -0.0254,0.02513 -0.03795,0.03795 -0.460509,-0.470309 -1.101831,-0.762833 -1.812224,-0.762833 -1.401454,0 -2.537114,1.13566 -2.537114,2.537114 0,0.710394 0.292524,1.351715 0.762833,1.812225 -0.47031,0.460509 -0.762833,1.101831 -0.762833,1.812224 0,0.710394 0.292524,1.351715 0.762833,1.812224 -0.470309,0.460509 -0.762833,1.101831 -0.762833,1.812224 0,0.710394 0.292525,1.351716 0.762833,1.812225 -0.470309,0.460509 -0.762833,1.101831 -0.762833,1.812224 0,0.710394 0.292525,1.351715 0.762833,1.812225 -0.470309,0.460508 -0.762833,1.101831 -0.762833,1.812224 0,0.710394 0.292525,1.351716 0.762833,1.812225 -0.470309,0.460509 -0.762833,1.101831 -0.762833,1.812224 0,0.710394 0.292525,1.351715 0.762833,1.812224 -0.470309,0.46051 -0.762833,1.101832 -0.762833,1.812225 0,0.710394 0.292525,1.351715 0.762833,1.812225 -0.01281,0.01255 -0.0254,0.02513 -0.03795,0.03795 -0.460507,-0.470309 -1.101833,-0.762834 -1.812223,-0.762834 -1.401454,0 -2.537114,1.135665 -2.537114,2.537114 0,0.710393 0.292524,1.351714 0.762833,1.812223 -0.01281,0.01247 -0.0254,0.02532 -0.03795,0.03795 -0.460509,-0.470309 -1.10183,-0.762833 -1.812224,-0.762833 -1.401454,0 -2.537114,1.135661 -2.537114,2.537113 0,0.710393 0.292524,1.351714 0.762833,1.812227 -0.47031,0.460509 -0.762833,1.10183 -0.762833,1.812223 0,0.710392 0.292524,1.351714 0.762833,1.812223 -0.47031,0.460509 -0.762833,1.10183 -0.762833,1.812227 0,0.710392 0.292524,1.351714 0.762833,1.812223 -0.47031,0.460509 -0.762833,1.10183 -0.762833,1.812226 0,0.710393 0.292524,1.351714 0.762833,1.812223 -0.47031,0.460509 -0.762833,1.101831 -0.762833,1.812227 0,0.710392 0.292524,1.351714 0.762833,1.812223 -0.47031,0.460513 -0.762833,1.101831 -0.762833,1.812223 0,1.401453 1.13566,2.537114 2.537114,2.537114 0.710394,0 1.351715,-0.292536 1.812225,-0.76283 0.01255,0.01285 0.02513,0.02532 0.03795,0.03791 -0.47031,0.460509 -0.762834,1.10183 -0.762834,1.812223 0,1.401456 1.135661,2.537117 2.537115,2.537117 0.71039,0 1.351716,-0.292535 1.812224,-0.762837 0.460509,0.470309 1.101831,0.762837 1.812225,0.762837 0.08759,0 0.174073,-0.0045 0.259374,-0.01323 1.27953,-0.129903 2.27774,-1.210235 2.27774,-2.524093 0,-0.710397 -0.292524,-1.351718 -0.762834,-1.812227 0.01281,-0.01247 0.0254,-0.02532 0.03795,-0.03791 0.460509,0.470309 1.101831,0.76283 1.812225,0.76283 0.08759,0 0.17407,-0.0045 0.259374,-0.01285 1.279531,-0.129902 2.27774,-1.210231 2.27774,-2.524097 0,-0.710392 -0.292524,-1.35171 -0.762833,-1.812223 0.01281,-0.01247 0.0254,-0.02532 0.03795,-0.03791 0.46051,0.470309 1.101832,0.762829 1.812225,0.762829 0.710393,0 1.351716,-0.292535 1.812225,-0.762829 0.460509,0.470309 1.10183,0.762829 1.812227,0.762829 0.710392,0 1.351714,-0.292535 1.812223,-0.762829 0.460509,0.470309 1.10183,0.762829 1.812223,0.762829 0.08761,0 0.174085,-0.0045 0.259389,-0.01323 0.606531,-0.06157 1.149123,-0.337474 1.552852,-0.749809 0.01247,0.01285 0.02532,0.02532 0.03795,0.03791 -0.470309,0.460512 -0.762833,1.10183 -0.762833,1.812223 0,1.401452 1.135661,2.537113 2.537117,2.537113 0.710392,0 1.351714,-0.292535 1.812223,-0.762829 0.01247,0.01285 0.02532,0.02532 0.03795,0.03791 -0.470313,0.460509 -0.762833,1.101831 -0.762833,1.812223 0,1.401457 1.135657,2.537118 2.537114,2.537118 0.710392,0 1.351714,-0.292536 1.812223,-0.762838 0.460509,0.47031 1.10183,0.762838 1.812226,0.762838 0.710393,0 1.351714,-0.292536 1.812223,-0.762838 0.460513,0.47031 1.101835,0.762838 1.812227,0.762838 0.710396,0 1.351714,-0.292536 1.812227,-0.762838 0.460505,0.47031 1.10183,0.762838 1.812223,0.762838 0.710392,0 1.351718,-0.292536 1.812223,-0.762838 0.460513,0.47031 1.10183,0.762838 1.812223,0.762838 1.401452,0 2.537113,-1.135661 2.537113,-2.537118 0,-0.710392 -0.292535,-1.351714 -0.762829,-1.812223 0.01285,-0.01247 0.02532,-0.02532 0.03791,-0.03791 0.460513,0.470309 1.101839,0.762829 1.812231,0.762829 0.710392,0 1.35171,-0.292535 1.812223,-0.762829 0.01247,0.01285 0.02532,0.02532 0.03791,0.03791 -0.470317,0.460509 -0.762838,1.101831 -0.762838,1.812223 0,1.401457 1.135662,2.537118 2.537114,2.537118 0.710393,0 1.351718,-0.292536 1.812223,-0.762838 0.460513,0.47031 1.101831,0.762838 1.812223,0.762838 0.710396,0 1.351718,-0.292536 1.812231,-0.762838 0.460505,0.47031 1.10183,0.762838 1.812223,0.762838 0.710392,0 1.351714,-0.292536 1.812223,-0.762838 0.460508,0.47031 1.10183,0.762838 1.812222,0.762838 1.401457,0 2.537118,-1.135661 2.537118,-2.537118 0,-0.710392 -0.292536,-1.351714 -0.762833,-1.812223 0.01285,-0.01247 0.02532,-0.02532 0.03791,-0.03791 0.460513,0.470309 1.101831,0.762829 1.812223,0.762829 0.7104,0 1.351718,-0.292535 1.812231,-0.762829 0.01247,0.01285 0.02532,0.02532 0.03791,0.03791 -0.470309,0.460509 -0.762829,1.101831 -0.762829,1.812223 0,1.401457 1.135661,2.537118 2.537113,2.537118 0.710393,0 1.351711,-0.292536 1.812223,-0.762838 0.460509,0.47031 1.101831,0.762838 1.812223,0.762838 0.710393,0 1.351718,-0.292536 1.812223,-0.762838 0.460513,0.47031 1.101831,0.762838 1.812227,0.762838 0.710396,0 1.351714,-0.292536 1.812222,-0.762838 0.46051,0.47031 1.10183,0.762838 1.81222,0.762838 0.7104,0 1.35172,-0.292536 1.81223,-0.762838 0.46051,0.47031 1.10183,0.762838 1.81222,0.762838 0.7104,0 1.35172,-0.292536 1.81223,-0.762838 0.46051,0.47031 1.10183,0.762838 1.81222,0.762838 0.7104,0 1.35172,-0.292536 1.81223,-0.762838 0.46051,0.47031 1.10183,0.762838 1.81222,0.762838 0.71039,0 1.35172,-0.292536 1.81223,-0.762838 0.46051,0.47031 1.10183,0.762838 1.81222,0.762838 1.40146,0 2.53711,-1.135661 2.53711,-2.537118 0,-0.710392 -0.29253,-1.351714 -0.76283,-1.812223 0.0129,-0.01247 0.0253,-0.02532 0.0379,-0.03791 0.46051,0.470309 1.10183,0.762829 1.81223,0.762829 1.40145,0 2.53711,-1.135661 2.53711,-2.537113 0,-0.710393 -0.29253,-1.351711 -0.76283,-1.812223 0.47031,-0.460509 0.76283,-1.101831 0.76283,-1.812223 0,-0.710397 -0.29253,-1.351718 -0.76283,-1.812227 0.0129,-0.01247 0.0253,-0.02532 0.0379,-0.03795 0.4605,0.470313 1.10183,0.762841 1.81222,0.762841 0.71039,0 1.35172,-0.292535 1.81222,-0.762841 0.46052,0.470313 1.10183,0.762841 1.81223,0.762841 0.71039,0 1.35171,-0.292535 1.81222,-0.762841 0.0125,0.01285 0.0253,0.02532 0.038,0.03795 -0.47031,0.460509 -0.76284,1.10183 -0.76284,1.812227 0,1.401452 1.13566,2.537113 2.53712,2.537113 0.71039,0 1.35171,-0.292535 1.81222,-0.762833 0.0125,0.01285 0.0253,0.02532 0.0379,0.03791 -0.47031,0.460512 -0.76283,1.10183 -0.76283,1.812222 0,1.401457 1.13566,2.537114 2.53712,2.537114 0.71039,0 1.35171,-0.292535 1.81222,-0.762829 0.0125,0.01285 0.0253,0.02532 0.0379,0.03791 -0.47031,0.460509 -0.76284,1.101831 -0.76284,1.812227 0,1.401453 1.13566,2.537114 2.53712,2.537114 0.71039,0 1.35171,-0.292536 1.81222,-0.762838 0.46051,0.47031 1.10184,0.762838 1.81223,0.762838 0.71039,0 1.35171,-0.292536 1.81222,-0.762838 0.46051,0.47031 1.10183,0.762838 1.81222,0.762838 0.7104,0 1.35172,-0.292536 1.81223,-0.762838 0.46051,0.47031 1.10184,0.762838 1.81222,0.762838 1.40146,0 2.53712,-1.135661 2.53712,-2.537114 0,-0.710396 -0.29254,-1.351718 -0.76284,-1.812227 0.0129,-0.01247 0.0253,-0.02532 0.038,-0.03791 0.46051,0.470309 1.10183,0.762829 1.81222,0.762829 0.7104,0 1.35172,-0.292535 1.81223,-0.762829 0.0125,0.01285 0.0253,0.02532 0.0379,0.03791 -0.47031,0.460509 -0.76283,1.101831 -0.76283,1.812227 0,1.401453 1.13565,2.537114 2.53711,2.537114 0.71039,0 1.35172,-0.292536 1.81222,-0.762838 0.46051,0.47031 1.10184,0.762838 1.81223,0.762838 0.71039,0 1.35171,-0.292536 1.81223,-0.762838 0.4605,0.47031 1.10183,0.762838 1.81222,0.762838 0.71039,0 1.35172,-0.292536 1.81222,-0.762838 0.46051,0.47031 1.10183,0.762838 1.81223,0.762838 0.71039,0 1.35171,-0.292536 1.81222,-0.762838 0.46051,0.47031 1.10184,0.762838 1.81223,0.762838 0.71039,0 1.35171,-0.292536 1.81222,-0.762838 0.46051,0.47031 1.10183,0.762838 1.81223,0.762838 0.0876,0 0.17408,-0.0045 0.25938,-0.01323 1.27953,-0.129902 2.27774,-1.210231 2.27774,-2.524093 0,-0.710392 -0.29253,-1.351718 -0.76283,-1.812223 0.0128,-0.01247 0.0253,-0.02532 0.0379,-0.03798 0.46051,0.470309 1.10183,0.762833 1.81222,0.762833 1.40146,0 2.53712,-1.135661 2.53712,-2.537117 0,-0.710393 -0.29254,-1.35171 -0.76283,-1.812223 0.47031,-0.460505 0.76283,-1.101831 0.76283,-1.812223 0,-0.710393 -0.29254,-1.351718 -0.76283,-1.812227 0.47031,-0.460509 0.76283,-1.10183 0.76283,-1.812223 0,-0.710392 -0.29254,-1.351714 -0.76283,-1.812223 0.47031,-0.460509 0.76283,-1.10183 0.76283,-1.812227 0,-0.710392 -0.29254,-1.351714 -0.76283,-1.812222 0.47031,-0.460509 0.76283,-1.101831 0.76283,-1.812223 0,-0.710397 -0.29254,-1.351718 -0.76283,-1.812227 0.47031,-0.460509 0.76283,-1.101831 0.76283,-1.812223 0,-0.710396 -0.29254,-1.351718 -0.76283,-1.812227 0.47031,-0.460509 0.76283,-1.10183 0.76283,-1.812223 0,-0.710391 -0.29254,-1.351717 -0.76283,-1.812225 0.47031,-0.460509 0.76283,-1.101831 0.76283,-1.812225 0,-1.401454 -1.13566,-2.537114 -2.53712,-2.537114 -0.71039,0 -1.35171,0.292524 -1.81222,0.762833 -0.0125,-0.01281 -0.0253,-0.0254 -0.0379,-0.03795 0.47031,-0.460509 0.76283,-1.101831 0.76283,-1.812224 0,-1.401454 -1.13565,-2.537115 -2.53711,-2.537115 -0.7104,0 -1.35172,0.292524 -1.81223,0.762834 -0.46051,-0.47031 -1.10183,-0.762834 -1.81222,-0.762834 -0.71039,0 -1.35172,0.292524 -1.81223,0.762834 -0.4605,-0.47031 -1.10183,-0.762834 -1.81222,-0.762834 -0.61314,0 -1.17547,0.217444 -1.61401,0.579345 -0.0627,0.0517 -0.12272,0.106281 -0.18009,0.163669 -0.006,0.0063 -0.0117,0.01342 -0.0181,0.0198 -0.0125,-0.01281 -0.0253,-0.0254 -0.0379,-0.03795 0.47031,-0.460509 0.76283,-1.101831 0.76283,-1.812225 0,-0.710393 -0.29253,-1.351716 -0.76283,-1.812224 0.47031,-0.460509 0.76283,-1.101831 0.76283,-1.812224 0,-0.710394 -0.29253,-1.351716 -0.76283,-1.812225 0.47031,-0.460508 0.76283,-1.101831 0.76283,-1.812225 0,-0.710393 -0.29253,-1.351714 -0.76283,-1.812224 0.47031,-0.46051 0.76283,-1.101831 0.76283,-1.812225 0,-0.710393 -0.29253,-1.351715 -0.76283,-1.812224 0.47031,-0.460509 0.76283,-1.101831 0.76283,-1.812225 0,-1.401454 -1.13566,-2.537114 -2.53712,-2.537114 -0.71039,0 -1.35171,0.292524 -1.81222,0.762834 -0.0125,-0.01281 -0.0253,-0.0254 -0.038,-0.03795 0.47031,-0.460509 0.76283,-1.101832 0.76283,-1.812224 0,-1.4014534 -1.13566,-2.5371145 -2.53712,-2.5371145 -0.71038,0 -1.35171,0.2925241 -1.81222,0.762833 -0.46051,-0.4703206 -1.10183,-0.7628447 -1.81222,-0.7628447 -0.7104,0 -1.35172,0.2925241 -1.81223,0.7628334 -0.4605,-0.4703093 -1.10183,-0.7628334 -1.81222,-0.7628334 -1.40146,0 -2.53712,1.1356611 -2.53712,2.5371152 0,0.710392 0.29254,1.351715 0.76284,1.812224 -0.0129,0.01255 -0.0253,0.02513 -0.0379,0.03795 -0.46051,-0.470309 -1.10184,-0.762833 -1.81223,-0.762833 -0.71039,0 -1.35172,0.292524 -1.81222,0.762833 -0.0125,-0.01281 -0.0253,-0.0254 -0.0379,-0.03795 0.47031,-0.460509 0.76283,-1.101832 0.76283,-1.812224 0,-1.4014541 -1.13565,-2.5371152 -2.53712,-2.5371152 -0.71039,0 -1.35171,0.2925241 -1.81222,0.7628334 -0.46051,-0.4703093 -1.10183,-0.7628334 -1.81222,-0.7628334 -0.71039,0 -1.35172,0.2925241 -1.81223,0.7628334 -0.46051,-0.4703093 -1.10183,-0.7628334 -1.81222,-0.7628334 -0.7104,0 -1.35171,0.2925241 -1.81223,0.7628334 -0.4605,-0.4703093 -1.10183,-0.7628334 -1.81222,-0.7628334 -0.71039,0 -1.35172,0.2925241 -1.81222,0.7628334 -0.46052,-0.4703093 -1.10183,-0.7628334 -1.81223,-0.7628334 -0.71039,0 -1.35171,0.2925241 -1.81223,0.7628334 -0.4605,-0.4703093 -1.10183,-0.7628334 -1.81222,-0.7628334 -0.71039,0 -1.35171,0.2925241 -1.81222,0.7628334 -0.46051,-0.4703093 -1.10183,-0.7628334 -1.81223,-0.7628334 -0.71039,0 -1.35171,0.2925241 -1.81222,0.7628334 -0.46051,-0.4703093 -1.10183,-0.7628334 -1.81223,-0.7628334 -0.71039,0 -1.35171,0.2925241 -1.81222,0.7628334 -0.46051,-0.4703093 -1.10183,-0.7628334 -1.81223,-0.7628334 -0.71039,0 -1.35171,0.2925241 -1.81222,0.7628334 -0.46051,-0.4703093 -1.10184,-0.7628334 -1.81222,-0.7628334 -0.7104,0 -1.35172,0.2925241 -1.81223,0.7628334 -0.46051,-0.4703093 -1.10183,-0.7628334 -1.81222,-0.7628334 -1.40146,0 -2.53712,1.1356611 -2.53712,2.5371152 0,0.710392 0.29254,1.351715 0.76284,1.812224 -0.0129,0.01255 -0.0253,0.02513 -0.038,0.03795 -0.4605,-0.470309 -1.10183,-0.762833 -1.81222,-0.762833 -0.71039,0 -1.35172,0.292524 -1.81223,0.762833 -0.0125,-0.01281 -0.0253,-0.0254 -0.038,-0.03795 0.47031,-0.460509 0.76284,-1.101832 0.76284,-1.812224 0,-1.4014541 -1.13566,-2.5371152 -2.53712,-2.5371152 -0.71039,0 -1.35172,0.2925241 -1.81222,0.7628334 -0.460511,-0.4703093 -1.101829,-0.7628334 -1.812225,-0.7628334 -0.710397,0 -1.351714,0.2925241 -1.812227,0.7628334 -0.460505,-0.4703093 -1.101831,-0.7628334 -1.812223,-0.7628334 -0.710392,0 -1.351718,0.2925241 -1.812223,0.7628334 -0.460513,-0.4703093 -1.101831,-0.7628334 -1.812223,-0.7628334 -0.710392,0 -1.351718,0.2925241 -1.812223,0.7628334 -0.460513,-0.4703093 -1.10183,-0.7628334 -1.81223,-0.7628334 -0.710393,0 -1.351711,0.2925241 -1.812223,0.7628334 -0.460506,-0.4703093 -1.101831,-0.7628334 -1.812223,-0.7628334 -0.710393,0 -1.351718,0.2925241 -1.812223,0.7628334 C 81.524314,8.2544739 80.882996,7.9619498 80.1726,7.9619498 c -0.710393,0 -1.351714,0.2925241 -1.812223,0.7628334 -0.460513,-0.4703093 -1.101834,-0.7628334 -1.812227,-0.7628334 -0.710392,0 -1.351714,0.2925241 -1.812223,0.7628334 -0.460509,-0.4703093 -1.10183,-0.7628334 -1.812227,-0.7628334 -0.710392,0 -1.351713,0.2925241 -1.812222,0.7628334 -0.460513,-0.4703093 -1.101831,-0.7628334 -1.812223,-0.7628334 -0.710393,0 -1.351718,0.2925241 -1.812231,0.7628334 -0.460505,-0.4703093 -1.10183,-0.7628334 -1.812223,-0.7628334 -1.401452,0 -2.537114,1.1356611 -2.537114,2.5371152 0,0.710392 0.292536,1.351715 0.762838,1.812224 -0.01285,0.01255 -0.02532,0.02513 -0.03798,0.03795 -0.460505,-0.470309 -1.10183,-0.762833 -1.812223,-0.762833 -0.710392,0 -1.351717,0.292524 -1.812223,0.762833 -0.01247,-0.01281 -0.02532,-0.0254 -0.03798,-0.03795 0.470309,-0.460509 0.76283,-1.101832 0.76283,-1.812224 0,-1.4014541 -1.135654,-2.5371152 -2.53711,-2.5371152 -0.710393,0 -1.351718,0.2925241 -1.812227,0.7628334 -0.460509,-0.4703093 -1.10183,-0.7628334 -1.812227,-0.7628334 -0.710392,0 -1.351714,0.2925241 -1.812223,0.7628334 -0.460509,-0.4703093 -1.10183,-0.7628334 -1.812223,-0.7628334 -0.710396,0 -1.351717,0.2925241 -1.812226,0.7628334 -0.460509,-0.4703093 -1.101831,-0.7628334 -1.812223,-0.7628334 -0.710393,0 -1.351718,0.2925241 -1.812227,0.7628334 -0.460509,-0.4703093 -1.101831,-0.7628334 -1.812223,-0.7628334 -0.710392,0 -1.351718,0.2925241 -1.812227,0.7628334 -0.460509,-0.4703093 -1.10183,-0.7628334 -1.812223,-0.7628334 -0.710392,0 -1.351714,0.2925241 -1.812223,0.7628334 -0.460509,-0.4703093 -1.101833,-0.7628334 -1.812226,-0.7628334 -0.710394,0 -1.351716,0.2925241 -1.812225,0.7628334 -0.460509,-0.4703093 -1.10183,-0.7628334 -1.812224,-0.7628334 z m 16.31002,18.8091921 c 0.460508,0.47031 1.10183,0.762833 1.812226,0.762833 0.710393,0 1.351714,-0.292524 1.812223,-0.762833 0.01247,0.01281 0.02532,0.0254 0.03795,0.03795 -0.47031,0.460508 -0.762834,1.101831 -0.762834,1.812225 0,0.710393 0.292536,1.351715 0.762834,1.812224 -0.47031,0.46051 -0.762834,1.101832 -0.762834,1.812225 0,0.710394 0.292536,1.351715 0.762834,1.812224 -0.47031,0.46051 -0.762834,1.101832 -0.762834,1.812225 0,0.710393 0.292536,1.351715 0.762834,1.812225 -0.01285,0.01255 -0.02532,0.02513 -0.03795,0.03795 -0.460509,-0.470311 -1.10183,-0.762836 -1.812223,-0.762836 -0.710396,0 -1.351718,0.292524 -1.812226,0.762834 -0.460509,-0.470309 -1.101831,-0.762834 -1.812223,-0.762834 -1.401453,0 -2.537114,1.135666 -2.537114,2.537114 0,0.710393 0.292535,1.351714 0.762833,1.812223 -0.01285,0.01247 -0.02532,0.02532 -0.03795,0.03795 -0.460509,-0.470309 -1.101831,-0.762833 -1.812223,-0.762833 -0.710396,0 -1.351718,0.292535 -1.812227,0.762833 -0.01247,-0.01285 -0.02532,-0.02532 -0.03795,-0.03795 0.470309,-0.460509 0.762829,-1.10183 0.762829,-1.812223 0,-0.71039 -0.292535,-1.351716 -0.762829,-1.812224 0.470309,-0.460509 0.762829,-1.101831 0.762829,-1.812224 0,-0.710394 -0.292535,-1.351716 -0.762829,-1.812225 0.470309,-0.46051 0.762829,-1.101831 0.762829,-1.812224 0,-0.710394 -0.292535,-1.351716 -0.762829,-1.812225 0.01285,-0.01255 0.02532,-0.02513 0.03795,-0.03795 0.460509,0.47031 1.101831,0.762833 1.812227,0.762833 0.710392,0 1.351714,-0.292524 1.812223,-0.762833 0.460509,0.47031 1.10183,0.762833 1.812227,0.762833 1.401452,0 2.537113,-1.13566 2.537113,-2.537114 0,-0.710394 -0.292535,-1.351717 -0.762833,-1.812225 0.01285,-0.01255 0.02532,-0.02513 0.03795,-0.03795 z m 25.371144,0 c 0.460512,0.47031 1.10183,0.762833 1.812223,0.762833 0.710392,0 1.351717,-0.292524 1.81223,-0.762833 0.01247,0.01281 0.02532,0.0254 0.03791,0.03795 -0.470309,0.460508 -0.76283,1.101831 -0.76283,1.812225 0,0.710393 0.292536,1.351715 0.76283,1.812224 -0.470309,0.46051 -0.76283,1.101832 -0.76283,1.812225 0,0.710394 0.292536,1.351715 0.76283,1.812224 -0.470309,0.46051 -0.76283,1.101832 -0.76283,1.812225 0,0.710393 0.292536,1.351715 0.76283,1.812225 -0.470309,0.460507 -0.76283,1.101834 -0.76283,1.812224 0,0.710393 0.292536,1.351714 0.76283,1.812223 -0.01285,0.01247 -0.02532,0.02532 -0.03791,0.03795 -0.460513,-0.470313 -1.101838,-0.762833 -1.81223,-0.762833 -0.710393,0 -1.351711,0.292535 -1.812223,0.762833 -0.01247,-0.01285 -0.02532,-0.02532 -0.03791,-0.03795 0.470309,-0.460509 0.762833,-1.10183 0.762833,-1.812223 0,-1.401449 -1.135661,-2.537114 -2.537117,-2.537114 -0.710392,0 -1.351714,0.292524 -1.812223,0.762833 -0.01247,-0.01281 -0.02532,-0.0254 -0.03798,-0.03795 0.470309,-0.460509 0.762833,-1.101831 0.762833,-1.812224 0,-0.710394 -0.292535,-1.351716 -0.762833,-1.812225 0.470309,-0.46051 0.762833,-1.101831 0.762833,-1.812224 0,-0.710394 -0.292535,-1.351716 -0.762833,-1.812225 0.01285,-0.01255 0.02532,-0.02513 0.03798,-0.03795 0.460509,0.47031 1.101831,0.762833 1.812223,0.762833 1.401456,0 2.537117,-1.13566 2.537117,-2.537114 0,-0.710394 -0.292535,-1.351717 -0.762833,-1.812225 0.01285,-0.01255 0.02532,-0.02513 0.03791,-0.03795 z" />
<path fill="#fff" d="m 33.054975,11.514503 c -1.441465,0 -2.609604,1.168132 -2.609604,2.609603 0,0.704646 0.280475,1.342738 0.734234,1.812225 -0.453759,0.469486 -0.734234,1.107578 -0.734234,1.812225 0,0.704647 0.280475,1.342737 0.734234,1.812224 -0.453759,0.469486 -0.734234,1.107576 -0.734234,1.812225 0,0.704646 0.280475,1.342738 0.734234,1.812224 -0.453759,0.469487 -0.734234,1.107578 -0.734234,1.812225 0,0.704646 0.280475,1.342738 0.734234,1.812224 -0.453759,0.469486 -0.734234,1.107578 -0.734234,1.812224 0,0.704649 0.280475,1.342739 0.734234,1.812225 -0.453759,0.469486 -0.734234,1.107577 -0.734234,1.812225 0,0.704646 0.280475,1.342737 0.734234,1.812224 -0.453759,0.469486 -0.734234,1.107578 -0.734234,1.812224 0,1.441471 1.168139,2.609604 2.609604,2.609604 1.441471,0 2.609604,-1.168133 2.609604,-2.609604 0,-0.704646 -0.280479,-1.342738 -0.734234,-1.812224 0.453756,-0.469487 0.734234,-1.107578 0.734234,-1.812224 0,-0.704648 -0.280479,-1.342739 -0.734234,-1.812225 0.453756,-0.469486 0.734234,-1.107576 0.734234,-1.812225 0,-0.543091 -0.166163,-1.047149 -0.449942,-1.464787 0.417637,0.283782 0.921694,0.449942 1.464787,0.449942 0.704647,0 1.34274,-0.280475 1.812225,-0.734234 0.469486,0.453759 1.107579,0.734234 1.812223,0.734234 0.704648,0 1.342738,-0.280475 1.812227,-0.734234 0.469485,0.453759 1.107575,0.734234 1.812223,0.734234 1.44147,0 2.609605,-1.168139 2.609605,-2.609603 0,-0.543092 -0.166148,-1.04715 -0.449945,-1.464788 0.417641,0.283782 0.921698,0.449942 1.46479,0.449942 1.441466,0 2.609605,-1.168138 2.609605,-2.609603 0,-0.704649 -0.280479,-1.342739 -0.734234,-1.812225 0.453759,-0.469487 0.734234,-1.107577 0.734234,-1.812224 0,-1.441466 -1.168139,-2.609604 -2.609605,-2.609604 -0.543092,0 -1.047149,0.166163 -1.46479,0.449942 0.283767,-0.417638 0.449945,-0.921696 0.449945,-1.464788 0,-1.441471 -1.168135,-2.609603 -2.609605,-2.609603 -0.704648,0 -1.342738,0.280475 -1.812223,0.734234 -0.469489,-0.453758 -1.107579,-0.734234 -1.812227,-0.734234 -0.704644,0 -1.342737,0.280475 -1.812223,0.734234 -0.469485,-0.453758 -1.107578,-0.734234 -1.812225,-0.734234 -0.704648,0 -1.342738,0.280476 -1.812225,0.734234 -0.469486,-0.453758 -1.107576,-0.734234 -1.812224,-0.734234 z m 21.746692,0 c -1.441466,0 -2.609601,1.168132 -2.609601,2.609603 0,0.704646 0.280479,1.342738 0.734234,1.812225 -0.453759,0.469486 -0.734234,1.107578 -0.734234,1.812225 0,0.704647 0.280479,1.342737 0.734234,1.812224 -0.453759,0.469486 -0.734234,1.107576 -0.734234,1.812225 0,1.441465 1.168135,2.609603 2.609601,2.609603 0.543096,0 1.047152,-0.16616 1.464794,-0.449942 -0.283805,0.417638 -0.449945,0.921696 -0.449945,1.464788 0,1.441464 1.168134,2.609603 2.609605,2.609603 0.543088,0 1.047144,-0.166159 1.464786,-0.449942 -0.283767,0.417638 -0.449942,0.921696 -0.449942,1.464787 0,0.704649 0.280479,1.342739 0.734234,1.812225 -0.453762,0.469486 -0.734234,1.107577 -0.734234,1.812225 0,0.704646 0.280479,1.342737 0.734234,1.812224 -0.453762,0.469486 -0.734234,1.107578 -0.734234,1.812224 0,1.441471 1.168139,2.609604 2.609602,2.609604 1.44147,0 2.609605,-1.168133 2.609605,-2.609604 0,-0.704646 -0.280479,-1.342738 -0.734234,-1.812224 0.453755,-0.469487 0.734234,-1.107578 0.734234,-1.812224 0,-0.704648 -0.280479,-1.342739 -0.734234,-1.812225 0.453755,-0.469486 0.734234,-1.107576 0.734234,-1.812225 0,-0.543091 -0.166148,-1.047149 -0.449942,-1.464787 0.417638,0.283782 0.921691,0.449942 1.464786,0.449942 1.441463,0 2.609602,-1.168139 2.609602,-2.609603 0,-0.543092 -0.166149,-1.04715 -0.449942,-1.464788 0.417642,0.283782 0.921698,0.449942 1.46479,0.449942 1.441466,0 2.609605,-1.168138 2.609605,-2.609603 0,-0.704649 -0.280479,-1.342739 -0.734234,-1.812225 0.453755,-0.469487 0.734234,-1.107577 0.734234,-1.812224 0,-0.704647 -0.280479,-1.342739 -0.734234,-1.812225 0.453755,-0.469487 0.734234,-1.107579 0.734234,-1.812225 0,-1.441471 -1.168139,-2.609603 -2.609605,-2.609603 -1.441463,0 -2.609601,1.168132 -2.609601,2.609603 0,0.704646 0.280479,1.342738 0.734233,1.812225 -0.453762,0.469486 -0.734233,1.107578 -0.734233,1.812225 0,0.704647 0.280479,1.342737 0.734233,1.812224 -0.453762,0.469486 -0.734233,1.107576 -0.734233,1.812225 0,0.543091 0.166148,1.047148 0.449941,1.464787 -0.417641,-0.283782 -0.921698,-0.449942 -1.46479,-0.449942 -1.441474,0 -2.609605,1.168138 -2.609605,2.609604 0,0.543092 0.166186,1.047149 0.449942,1.464788 -0.417634,-0.283782 -0.921691,-0.449943 -1.464786,-0.449943 -0.543092,0 -1.047149,0.16616 -1.464787,0.449943 0.283767,-0.417639 0.449946,-0.921696 0.449946,-1.464788 0,-1.441466 -1.168139,-2.609604 -2.609605,-2.609604 -0.543092,0 -1.047152,0.166159 -1.46479,0.449942 0.283767,-0.417639 0.449941,-0.921696 0.449941,-1.464787 0,-0.704649 -0.280479,-1.342739 -0.734234,-1.812225 0.453759,-0.469487 0.734234,-1.107577 0.734234,-1.812224 0,-0.704647 -0.280479,-1.342739 -0.734234,-1.812225 0.453759,-0.469487 0.734234,-1.107579 0.734234,-1.812225 0,-1.441471 -1.168138,-2.609603 -2.609605,-2.609603 z m 21.746695,0 c -1.441471,0 -2.609605,1.168132 -2.609605,2.609603 0,1.441466 1.168134,2.609604 2.609605,2.609604 0.704651,0 1.342737,-0.280475 1.81223,-0.734235 0.469482,0.45376 1.107572,0.734235 1.812223,0.734235 0.543092,0 1.047145,-0.16616 1.464786,-0.449942 -0.283767,0.417638 -0.449941,0.921695 -0.449941,1.464788 0,0.704647 0.280479,1.342737 0.734234,1.812224 -0.453763,0.469486 -0.734234,1.107576 -0.734234,1.812225 0,0.704646 0.280479,1.342738 0.734234,1.812224 -0.453763,0.469487 -0.734234,1.107578 -0.734234,1.812225 0,0.704646 0.280479,1.342738 0.734234,1.812224 -0.453763,0.469486 -0.734234,1.107578 -0.734234,1.812224 0,0.704649 0.280479,1.342739 0.734234,1.812225 -0.453763,0.469486 -0.734234,1.107577 -0.734234,1.812225 0,0.704646 0.280479,1.342737 0.734234,1.812224 -0.453763,0.469486 -0.734234,1.107578 -0.734234,1.812224 0,1.441471 1.168135,2.609604 2.609601,2.609604 1.44147,0 2.609605,-1.168133 2.609605,-2.609604 0,-0.704646 -0.280479,-1.342738 -0.734234,-1.812224 0.453759,-0.469487 0.734234,-1.107578 0.734234,-1.812224 0,-0.704648 -0.280479,-1.342739 -0.734234,-1.812225 0.453759,-0.469486 0.734234,-1.107576 0.734234,-1.812225 0,-0.704646 -0.280479,-1.342738 -0.734234,-1.812224 0.453759,-0.469486 0.734234,-1.107578 0.734234,-1.812224 0,-0.704647 -0.280479,-1.342738 -0.734234,-1.812225 0.453759,-0.469486 0.734234,-1.107578 0.734234,-1.812224 0,-0.704649 -0.280479,-1.342739 -0.734234,-1.812225 0.453759,-0.469487 0.734234,-1.107577 0.734234,-1.812224 0,-0.543093 -0.166148,-1.04715 -0.449945,-1.464788 0.417641,0.283782 0.921694,0.449942 1.464786,0.449942 0.704651,0 1.342738,-0.280475 1.812231,-0.734235 0.469481,0.45376 1.107571,0.734235 1.812222,0.734235 1.441471,0 2.609605,-1.168138 2.609605,-2.609604 0,-1.441471 -1.168134,-2.609603 -2.609605,-2.609603 -0.704651,0 -1.342741,0.280475 -1.812222,0.734234 -0.469493,-0.453758 -1.10758,-0.734234 -1.812231,-0.734234 -0.704644,0 -1.342734,0.280475 -1.812223,0.734234 -0.469485,-0.453758 -1.107572,-0.734234 -1.812223,-0.734234 -0.704644,0 -1.342738,0.280475 -1.812223,0.734234 -0.469489,-0.453758 -1.107579,-0.734234 -1.812223,-0.734234 -0.704651,0 -1.342741,0.280475 -1.812223,0.734234 -0.469493,-0.453758 -1.107579,-0.734234 -1.81223,-0.734234 z m 21.746694,0 c -1.441466,0 -2.609605,1.168132 -2.609605,2.609603 0,0.704646 0.280479,1.342738 0.734234,1.812225 -0.453748,0.469486 -0.734234,1.107578 -0.734234,1.812225 0,0.704647 0.280479,1.342737 0.734234,1.812224 -0.453748,0.469486 -0.734234,1.107576 -0.734234,1.812225 0,0.704646 0.280479,1.342738 0.734234,1.812224 -0.453748,0.469487 -0.734234,1.107578 -0.734234,1.812225 0,0.704646 0.280479,1.342738 0.734234,1.812224 -0.453748,0.469486 -0.734234,1.107578 -0.734234,1.812224 0,0.704649 0.280479,1.342739 0.734234,1.812225 -0.453748,0.469486 -0.734234,1.107577 -0.734234,1.812225 0,0.704646 0.280479,1.342737 0.734234,1.812224 -0.453748,0.469486 -0.734234,1.107578 -0.734234,1.812224 0,1.441471 1.168139,2.609604 2.609605,2.609604 1.441467,0 2.609604,-1.168133 2.609604,-2.609604 0,-0.704646 -0.28048,-1.342738 -0.73423,-1.812224 0.45375,-0.469487 0.73423,-1.107578 0.73423,-1.812224 0,-0.704648 -0.28048,-1.342739 -0.73423,-1.812225 0.45375,-0.469486 0.73423,-1.107576 0.73423,-1.812225 0,-0.543091 -0.16615,-1.047149 -0.44994,-1.464787 0.41764,0.283782 0.92169,0.449942 1.46479,0.449942 0.70464,0 1.34273,-0.280475 1.81222,-0.734234 0.46949,0.453759 1.10758,0.734234 1.81223,0.734234 0.70464,0 1.34274,-0.280475 1.81222,-0.734234 0.46949,0.453759 1.10757,0.734234 1.81223,0.734234 0.54308,0 1.04714,-0.166159 1.46479,-0.449942 -0.28377,0.417638 -0.44995,0.921696 -0.44995,1.464787 0,0.704649 0.28048,1.342739 0.73424,1.812225 -0.45377,0.469486 -0.73424,1.107577 -0.73424,1.812225 0,0.704646 0.28048,1.342737 0.73424,1.812224 -0.45377,0.469486 -0.73424,1.107578 -0.73424,1.812224 0,1.441471 1.16813,2.609604 2.6096,2.609604 1.44147,0 2.60961,-1.168133 2.60961,-2.609604 0,-0.704646 -0.28048,-1.342738 -0.73424,-1.812224 0.45376,-0.469487 0.73424,-1.107578 0.73424,-1.812224 0,-0.704648 -0.28048,-1.342739 -0.73424,-1.812225 0.45376,-0.469486 0.73424,-1.107576 0.73424,-1.812225 0,-0.704646 -0.28048,-1.342738 -0.73424,-1.812224 0.45376,-0.469486 0.73424,-1.107578 0.73424,-1.812224 0,-0.704647 -0.28048,-1.342738 -0.73424,-1.812225 0.45376,-0.469486 0.73424,-1.107578 0.73424,-1.812224 0,-0.704649 -0.28048,-1.342739 -0.73424,-1.812225 0.45376,-0.469487 0.73424,-1.107577 0.73424,-1.812224 0,-0.704647 -0.28048,-1.342739 -0.73424,-1.812225 0.45376,-0.469487 0.73424,-1.107579 0.73424,-1.812225 0,-1.441471 -1.16814,-2.609603 -2.60961,-2.609603 -1.44147,0 -2.6096,1.168132 -2.6096,2.609603 0,0.704646 0.28048,1.342738 0.73424,1.812225 -0.45377,0.469486 -0.73424,1.107578 -0.73424,1.812225 0,0.704647 0.28048,1.342737 0.73424,1.812224 -0.45377,0.469486 -0.73424,1.107576 -0.73424,1.812225 0,0.543091 0.16615,1.047148 0.44995,1.464787 -0.41765,-0.283782 -0.92171,-0.449942 -1.46479,-0.449942 -0.70466,0 -1.34274,0.280475 -1.81223,0.734234 -0.46948,-0.45376 -1.10758,-0.734234 -1.81222,-0.734234 -0.70465,0 -1.34274,0.280475 -1.81223,0.734234 -0.46949,-0.45376 -1.10758,-0.734234 -1.81222,-0.734234 -0.5431,0 -1.04715,0.166159 -1.46479,0.449942 0.2838,-0.417639 0.44994,-0.921696 0.44994,-1.464787 0,-0.704649 -0.28048,-1.342739 -0.73423,-1.812225 0.45375,-0.469487 0.73423,-1.107577 0.73423,-1.812224 0,-0.704647 -0.28048,-1.342739 -0.73423,-1.812225 0.45375,-0.469487 0.73423,-1.107579 0.73423,-1.812225 0,-1.441471 -1.168137,-2.609603 -2.609604,-2.609603 z m 25.371144,0 c -1.44147,0 -2.6096,1.168132 -2.6096,2.609603 0,0.543092 0.16615,1.04715 0.44994,1.464788 -0.41764,-0.283782 -0.92169,-0.449942 -1.46479,-0.449942 -1.44146,0 -2.6096,1.168138 -2.6096,2.609604 0,0.704647 0.28048,1.342737 0.73423,1.812224 -0.45375,0.469486 -0.73423,1.107576 -0.73423,1.812225 0,0.704646 0.28048,1.342738 0.73423,1.812224 -0.45375,0.469487 -0.73423,1.107578 -0.73423,1.812225 0,0.704646 0.28048,1.342738 0.73423,1.812224 -0.45375,0.469486 -0.73423,1.107578 -0.73423,1.812224 0,0.704649 0.28048,1.342739 0.73423,1.812225 -0.45375,0.469486 -0.73423,1.107577 -0.73423,1.812225 0,1.441465 1.16814,2.609603 2.6096,2.609603 0.5431,0 1.04715,-0.166159 1.46479,-0.449942 -0.28377,0.417638 -0.44994,0.921696 -0.44994,1.464787 0,1.441471 1.16813,2.609604 2.6096,2.609604 0.70465,0 1.34274,-0.280479 1.81223,-0.734234 0.46948,0.453757 1.10757,0.734234 1.81222,0.734234 0.70465,0 1.34274,-0.280479 1.81222,-0.734234 0.4695,0.453757 1.10758,0.734234 1.81223,0.734234 1.44147,0 2.6096,-1.168133 2.6096,-2.609604 0,-0.543091 -0.16618,-1.047149 -0.44994,-1.464787 0.41764,0.283782 0.92169,0.449942 1.46479,0.449942 1.44146,0 2.6096,-1.168138 2.6096,-2.609603 0,-0.704648 -0.28048,-1.342739 -0.73423,-1.812225 0.45376,-0.469486 0.73423,-1.107576 0.73423,-1.812225 0,-0.704646 -0.28048,-1.342738 -0.73423,-1.812224 0.45376,-0.469486 0.73423,-1.107578 0.73423,-1.812224 0,-0.704647 -0.28048,-1.342738 -0.73423,-1.812225 0.45376,-0.469486 0.73423,-1.107578 0.73423,-1.812224 0,-0.704649 -0.28048,-1.342739 -0.73423,-1.812225 0.45376,-0.469487 0.73423,-1.107577 0.73423,-1.812224 0,-1.441466 -1.16814,-2.609604 -2.6096,-2.609604 -0.5431,0 -1.04715,0.166163 -1.46479,0.449942 0.28377,-0.417638 0.44994,-0.921696 0.44994,-1.464788 0,-1.441471 -1.16813,-2.609603 -2.6096,-2.609603 -0.70465,0 -1.34273,0.280475 -1.81223,0.734234 -0.46948,-0.453758 -1.10757,-0.734234 -1.81222,-0.734234 -0.70465,0 -1.34274,0.280475 -1.81222,0.734234 -0.46949,-0.453758 -1.10758,-0.734234 -1.81223,-0.734234 z m 18.12225,0 c -1.44147,0 -2.60961,1.168132 -2.60961,2.609603 0,0.704646 0.28048,1.342738 0.73424,1.812225 -0.45376,0.469486 -0.73424,1.107578 -0.73424,1.812225 0,0.704647 0.28048,1.342737 0.73424,1.812224 -0.45376,0.469486 -0.73424,1.107576 -0.73424,1.812225 0,0.704646 0.28048,1.342738 0.73424,1.812224 -0.45376,0.469487 -0.73424,1.107578 -0.73424,1.812225 0,0.704646 0.28048,1.342738 0.73424,1.812224 -0.45376,0.469486 -0.73424,1.107578 -0.73424,1.812224 0,0.704649 0.28048,1.342739 0.73424,1.812225 -0.45376,0.469486 -0.73424,1.107577 -0.73424,1.812225 0,0.704646 0.28048,1.342737 0.73424,1.812224 -0.45376,0.469486 -0.73424,1.107578 -0.73424,1.812224 0,1.441471 1.16814,2.609604 2.60961,2.609604 1.44147,0 2.6096,-1.168133 2.6096,-2.609604 0,-0.704646 -0.28048,-1.342738 -0.73423,-1.812224 0.45375,-0.469487 0.73423,-1.107578 0.73423,-1.812224 0,-0.704648 -0.28048,-1.342739 -0.73423,-1.812225 0.45375,-0.469486 0.73423,-1.107576 0.73423,-1.812225 0,-0.704646 -0.28048,-1.342738 -0.73423,-1.812224 0.45375,-0.469486 0.73423,-1.107578 0.73423,-1.812224 0,-0.543092 -0.16615,-1.04715 -0.44994,-1.464788 0.41763,0.283782 0.92169,0.449942 1.46478,0.449942 0.54309,0 1.04715,-0.16616 1.46479,-0.449942 -0.28377,0.417638 -0.44994,0.921696 -0.44994,1.464788 0,1.441464 1.16813,2.609603 2.6096,2.609603 0.54309,0 1.04715,-0.166159 1.46479,-0.449942 -0.0955,0.140515 -0.17798,0.290498 -0.24492,0.448809 -0.13205,0.31222 -0.205,0.655613 -0.205,1.015978 0,0.630645 0.22352,1.209092 0.59577,1.660168 0.4786,0.579955 1.203,0.949436 2.01383,0.949436 0.54309,0 1.04715,-0.166164 1.46479,-0.449942 -0.28377,0.417638 -0.44994,0.921694 -0.44994,1.464788 0,0.704646 0.28048,1.342737 0.73424,1.812224 -0.45377,0.469486 -0.73424,1.107578 -0.73424,1.812224 0,1.441471 1.16813,2.609604 2.6096,2.609604 1.44147,0 2.6096,-1.168133 2.6096,-2.609604 0,-0.704646 -0.28047,-1.342738 -0.73423,-1.812224 0.45376,-0.469487 0.73423,-1.107578 0.73423,-1.812224 0,-0.704648 -0.28047,-1.342739 -0.73423,-1.812225 0.45376,-0.469486 0.73423,-1.107576 0.73423,-1.812225 0,-0.704646 -0.28047,-1.342738 -0.73423,-1.812224 0.45376,-0.469486 0.73423,-1.107578 0.73423,-1.812224 0,-0.704647 -0.28047,-1.342738 -0.73423,-1.812225 0.45376,-0.469486 0.73423,-1.107578 0.73423,-1.812224 0,-0.704649 -0.28047,-1.342739 -0.73423,-1.812225 0.45376,-0.469487 0.73423,-1.107577 0.73423,-1.812224 0,-0.704647 -0.28047,-1.342739 -0.73423,-1.812225 0.45376,-0.469487 0.73423,-1.107579 0.73423,-1.812225 0,-1.441471 -1.16813,-2.609603 -2.6096,-2.609603 -1.44147,0 -2.6096,1.168132 -2.6096,2.609603 0,0.704646 0.28048,1.342738 0.73424,1.812225 -0.45377,0.469486 -0.73424,1.107578 -0.73424,1.812225 0,0.704647 0.28048,1.342737 0.73424,1.812224 -0.45377,0.469486 -0.73424,1.107576 -0.73424,1.812225 0,0.704646 0.28048,1.342738 0.73424,1.812224 -0.45377,0.469487 -0.73424,1.107578 -0.73424,1.812225 0,0.543092 0.16615,1.047149 0.44994,1.464788 -0.002,-0.0013 -0.004,-0.0028 -0.006,-0.0043 -0.41652,-0.281352 -0.91858,-0.445694 -1.45913,-0.445694 -0.54055,0 -1.04265,0.164341 -1.45913,0.445694 -0.002,0.0013 -0.004,0.0028 -0.006,0.0043 0.28376,-0.417639 0.44993,-0.921696 0.44993,-1.464788 0,-1.441466 -1.16813,-2.609604 -2.6096,-2.609604 -0.54309,0 -1.04715,0.166159 -1.46478,0.449942 0.28376,-0.417639 0.44993,-0.921696 0.44993,-1.464787 0,-1.441471 -1.16813,-2.609604 -2.6096,-2.609604 -0.54309,0 -1.04715,0.166163 -1.46478,0.449942 0.28376,-0.417638 0.44994,-0.921695 0.44994,-1.464787 0,-0.704647 -0.28048,-1.342739 -0.73424,-1.812225 0.45376,-0.469487 0.73424,-1.107579 0.73424,-1.812225 0,-1.441471 -1.16814,-2.609603 -2.60961,-2.609603 z M 38.491649,15.999475 c 0.469486,0.45376 1.107579,0.734235 1.812223,0.734235 0.704648,0 1.342738,-0.280475 1.812227,-0.734235 0.469485,0.45376 1.107575,0.734235 1.812223,0.734235 0.543095,0 1.047152,-0.16616 1.46479,-0.449942 -0.283767,0.417638 -0.449945,0.921695 -0.449945,1.464788 0,0.704647 0.280478,1.342737 0.734233,1.812224 -0.453755,0.469486 -0.734233,1.107576 -0.734233,1.812225 0,0.543091 0.166148,1.047148 0.449945,1.464787 -0.417638,-0.283782 -0.921695,-0.449942 -1.46479,-0.449942 -0.704648,0 -1.342738,0.280475 -1.812223,0.734234 -0.469489,-0.45376 -1.107579,-0.734234 -1.812227,-0.734234 -0.704644,0 -1.342737,0.280475 -1.812223,0.734234 -0.469485,-0.45376 -1.107578,-0.734234 -1.812225,-0.734234 -0.543093,0 -1.04715,0.166159 -1.464787,0.449942 0.283778,-0.417639 0.449942,-0.921696 0.449942,-1.464787 0,-0.704649 -0.280479,-1.342739 -0.734234,-1.812225 0.453756,-0.469487 0.734234,-1.107577 0.734234,-1.812224 0,-0.543093 -0.166163,-1.04715 -0.449942,-1.464788 0.417637,0.283782 0.921694,0.449942 1.464787,0.449942 0.704647,0 1.34274,-0.280475 1.812225,-0.734235 z m 86.986781,0 c 0.46948,0.45376 1.10757,0.734235 1.81222,0.734235 0.70465,0 1.34274,-0.280475 1.81222,-0.734235 0.4695,0.45376 1.10758,0.734235 1.81223,0.734235 0.5431,0 1.04715,-0.16616 1.46479,-0.449942 -0.28377,0.417638 -0.44995,0.921695 -0.44995,1.464788 0,0.704647 0.28048,1.342737 0.73424,1.812224 -0.45376,0.469486 -0.73424,1.107576 -0.73424,1.812225 0,0.704646 0.28048,1.342738 0.73424,1.812224 -0.45376,0.469487 -0.73424,1.107578 -0.73424,1.812225 0,0.704646 0.28048,1.342738 0.73424,1.812224 -0.45376,0.469486 -0.73424,1.107578 -0.73424,1.812224 0,0.704649 0.28048,1.342739 0.73424,1.812225 -0.45376,0.469486 -0.73424,1.107577 -0.73424,1.812225 0,0.543091 0.16615,1.047149 0.44995,1.464787 -0.41764,-0.283782 -0.92169,-0.449942 -1.46479,-0.449942 -0.70465,0 -1.34273,0.280475 -1.81223,0.734234 -0.46948,-0.453759 -1.10757,-0.734234 -1.81222,-0.734234 -0.70465,0 -1.34274,0.280475 -1.81222,0.734234 -0.46949,-0.453759 -1.10758,-0.734234 -1.81223,-0.734234 -0.54309,0 -1.04715,0.16616 -1.46479,0.449942 0.28377,-0.417638 0.44995,-0.921696 0.44995,-1.464787 0,-0.704648 -0.28048,-1.342739 -0.73424,-1.812225 0.45375,-0.469486 0.73424,-1.107576 0.73424,-1.812225 0,-0.704646 -0.28048,-1.342738 -0.73424,-1.812224 0.45375,-0.469486 0.73424,-1.107578 0.73424,-1.812224 0,-0.704647 -0.28048,-1.342738 -0.73424,-1.812225 0.45375,-0.469486 0.73424,-1.107578 0.73424,-1.812224 0,-0.704649 -0.28048,-1.342739 -0.73424,-1.812225 0.45375,-0.469487 0.73424,-1.107577 0.73424,-1.812224 0,-0.543093 -0.16619,-1.04715 -0.44995,-1.464788 0.41764,0.283782 0.9217,0.449942 1.46479,0.449942 0.70465,0 1.34274,-0.280475 1.81223,-0.734235 z m 45.30561,17.261722 c -1.44148,0 -2.60961,1.168139 -2.60961,2.609603 0,0.704649 0.28048,1.342739 0.73425,1.812225 -0.45377,0.469487 -0.73425,1.107579 -0.73425,1.812225 0,0.704647 0.28048,1.342737 0.73425,1.812223 -0.45377,0.469489 -0.73425,1.107579 -0.73425,1.812226 0,0.543092 0.16615,1.047149 0.44995,1.464787 -0.41765,-0.283767 -0.9217,-0.449942 -1.46479,-0.449942 -0.54309,0 -1.04715,0.166148 -1.46479,0.449942 0.28377,-0.417638 0.44994,-0.921695 0.44994,-1.464787 0,-1.44147 -1.16813,-2.609605 -2.6096,-2.609605 -0.70465,0 -1.34274,0.280479 -1.81222,0.734234 -0.46949,-0.453755 -1.10758,-0.734234 -1.81223,-0.734234 -1.44147,0 -2.60961,1.168135 -2.60961,2.609605 0,0.543092 0.16615,1.047149 0.44995,1.464787 -0.41764,-0.283767 -0.9217,-0.449942 -1.46479,-0.449942 -1.44147,0 -2.6096,1.168139 -2.6096,2.609605 0,0.704648 0.28048,1.342738 0.73424,1.812223 -0.45377,0.469485 -0.73424,1.107576 -0.73424,1.812223 0,0.704648 0.28048,1.342741 0.73424,1.812227 -0.45377,0.469485 -0.73424,1.107579 -0.73424,1.812223 0,1.441466 1.16813,2.609605 2.6096,2.609605 0.54309,0 1.04715,-0.166148 1.46479,-0.449942 -0.2838,0.417634 -0.44995,0.921699 -0.44995,1.464786 0,1.441471 1.16814,2.609605 2.60961,2.609605 0.70465,0 1.34274,-0.280478 1.81223,-0.734237 0.46948,0.453763 1.10757,0.734237 1.81222,0.734237 0.70465,0 1.34274,-0.280478 1.81223,-0.734237 0.46948,0.453763 1.10757,0.734237 1.81222,0.734237 0.70465,0 1.34274,-0.280478 1.81222,-0.734237 0.46948,0.453763 1.10757,0.734237 1.81223,0.734237 1.44147,0 2.6096,-1.168134 2.6096,-2.609605 0,-0.704643 -0.28048,-1.342737 -0.73424,-1.812222 0.45377,-0.46949 0.73424,-1.10758 0.73424,-1.812227 0,-0.704644 -0.28048,-1.342738 -0.73424,-1.812223 0.45377,-0.469486 0.73424,-1.107579 0.73424,-1.812227 0,-0.704647 -0.28048,-1.342738 -0.73424,-1.812223 0.45377,-0.469485 0.73424,-1.107575 0.73424,-1.812223 0,-0.704647 -0.28048,-1.342737 -0.73424,-1.812227 0.45377,-0.469485 0.73424,-1.107575 0.73424,-1.812223 0,-0.704647 -0.28048,-1.342737 -0.73424,-1.812226 0.45377,-0.469486 0.73424,-1.107576 0.73424,-1.812223 0,-0.704646 -0.28048,-1.342738 -0.73424,-1.812225 0.45377,-0.469486 0.73424,-1.107576 0.73424,-1.812225 0,-1.441464 -1.16813,-2.609603 -2.6096,-2.609603 z M 25.806077,40.510094 c -1.441471,0 -2.609603,1.168135 -2.609603,2.609605 0,0.704648 0.280475,1.342738 0.734233,1.812223 -0.453759,0.46949 -0.734233,1.10758 -0.734233,1.812227 0,0.704648 0.280475,1.342738 0.734233,1.812223 -0.453759,0.469485 -0.734233,1.107576 -0.734233,1.812223 0,0.704648 0.280475,1.342741 0.734233,1.812227 -0.453759,0.469485 -0.734233,1.107579 -0.734233,1.812223 0,0.704647 0.280475,1.342737 0.734233,1.812227 -0.453759,0.469485 -0.734233,1.107579 -0.734233,1.812222 0,1.441471 1.168132,2.609605 2.609603,2.609605 1.441465,0 2.609604,-1.168134 2.609604,-2.609605 0,-0.704643 -0.280475,-1.342737 -0.734234,-1.812222 0.453759,-0.46949 0.734234,-1.10758 0.734234,-1.812227 0,-0.543092 -0.16616,-1.047149 -0.449943,-1.464786 0.417638,0.283767 0.921695,0.449941 1.464788,0.449941 0.704647,0 1.342738,-0.280479 1.812225,-0.734234 0.469486,0.453759 1.107578,0.734234 1.812224,0.734234 0.704648,0 1.342738,-0.280479 1.812224,-0.734234 0.469487,0.453759 1.107577,0.734234 1.812225,0.734234 1.441465,0 2.609603,-1.168139 2.609603,-2.609605 0,-0.543092 -0.166148,-1.047148 -0.449941,-1.464786 0.417638,0.283767 0.921694,0.449941 1.464786,0.449941 1.441467,0 2.609605,-1.168131 2.609605,-2.609601 0,-1.441466 -1.168138,-2.609605 -2.609605,-2.609605 -0.543092,0 -1.047148,0.166148 -1.464786,0.449942 0.283767,-0.417638 0.449941,-0.921695 0.449941,-1.464787 0,-1.44147 -1.168138,-2.609605 -2.609603,-2.609605 -0.704648,0 -1.342738,0.280479 -1.812225,0.734234 -0.469486,-0.453755 -1.107576,-0.734234 -1.812224,-0.734234 -0.704646,0 -1.342738,0.280479 -1.812224,0.734234 -0.469487,-0.453755 -1.107578,-0.734234 -1.812225,-0.734234 -0.704648,0 -1.342738,0.280479 -1.812224,0.734234 -0.469487,-0.453755 -1.107579,-0.734234 -1.812225,-0.734234 z m 25.371144,0 c -1.441466,0 -2.609605,1.168135 -2.609605,2.609605 0,0.543092 0.166148,1.047149 0.449942,1.464787 -0.417638,-0.283767 -0.921695,-0.449942 -1.464786,-0.449942 -1.441471,0 -2.609605,1.168139 -2.609605,2.609605 0,0.704648 0.280478,1.342738 0.734233,1.812223 -0.453755,0.469485 -0.734233,1.107576 -0.734233,1.812223 0,0.704648 0.280478,1.342741 0.734233,1.812227 -0.453755,0.469485 -0.734233,1.107579 -0.734233,1.812223 0,1.441466 1.168134,2.609605 2.609605,2.609605 0.543091,0 1.047148,-0.166148 1.464786,-0.449942 -0.283767,0.417634 -0.449942,0.921699 -0.449942,1.464786 0,1.441471 1.168139,2.609605 2.609605,2.609605 0.704648,0 1.342738,-0.280478 1.812223,-0.734237 0.469489,0.453763 1.107579,0.734237 1.812223,0.734237 0.704652,0 1.342742,-0.280478 1.812223,-0.734237 0.469493,0.453763 1.107579,0.734237 1.812231,0.734237 1.441466,0 2.609605,-1.168134 2.609605,-2.609605 0,-0.543087 -0.166186,-1.047152 -0.449946,-1.464786 0.417638,0.283767 0.921695,0.449942 1.464787,0.449942 1.44147,0 2.609605,-1.168139 2.609605,-2.609605 0,-0.704644 -0.280479,-1.342738 -0.734234,-1.812223 0.453755,-0.469486 0.734234,-1.107579 0.734234,-1.812227 0,-0.704647 -0.280479,-1.342738 -0.734234,-1.812223 0.453755,-0.469485 0.734234,-1.107575 0.734234,-1.812223 0,-1.441466 -1.168135,-2.609605 -2.609605,-2.609605 -0.543092,0 -1.047149,0.166148 -1.464787,0.449942 0.283767,-0.417638 0.449946,-0.921695 0.449946,-1.464787 0,-1.44147 -1.168139,-2.609605 -2.609605,-2.609605 -0.704652,0 -1.342738,0.280479 -1.812231,0.734234 -0.469481,-0.453755 -1.107571,-0.734234 -1.812223,-0.734234 -0.704644,0 -1.342734,0.280479 -1.812223,0.734234 -0.469485,-0.453755 -1.107575,-0.734234 -1.812223,-0.734234 z m 18.122245,0 c -1.441463,0 -2.609601,1.168135 -2.609601,2.609605 0,0.704648 0.280479,1.342738 0.734233,1.812223 -0.453762,0.46949 -0.734233,1.10758 -0.734233,1.812227 0,0.704648 0.280479,1.342738 0.734233,1.812223 -0.453762,0.469485 -0.734233,1.107576 -0.734233,1.812223 0,0.704648 0.280479,1.342741 0.734233,1.812227 -0.453762,0.469485 -0.734233,1.107579 -0.734233,1.812223 0,1.441466 1.168138,2.609605 2.609601,2.609605 0.543088,0 1.047148,-0.166148 1.464786,-0.449942 -0.283767,0.417634 -0.449941,0.921699 -0.449941,1.464786 0,1.441471 1.168138,2.609605 2.609605,2.609605 1.44147,0 2.609601,-1.168134 2.609601,-2.609605 0,-0.543087 -0.166148,-1.047152 -0.449941,-1.464786 0.417641,0.283767 0.921694,0.449942 1.464786,0.449942 0.543091,0 1.047152,-0.166148 1.46479,-0.449942 -0.283767,0.417634 -0.449942,0.921699 -0.449942,1.464786 0,1.441471 1.168139,2.609605 2.609605,2.609605 1.44147,0 2.609601,-1.168134 2.609601,-2.609605 0,-0.543087 -0.166148,-1.047152 -0.449941,-1.464786 0.417634,0.283767 0.921694,0.449942 1.464786,0.449942 1.44147,0 2.609605,-1.168139 2.609605,-2.609605 0,-0.704644 -0.280479,-1.342738 -0.734234,-1.812223 0.453759,-0.469486 0.734234,-1.107579 0.734234,-1.812227 0,-0.704647 -0.280479,-1.342738 -0.734234,-1.812223 0.453759,-0.469485 0.734234,-1.107575 0.734234,-1.812223 0,-0.704647 -0.280479,-1.342737 -0.734234,-1.812227 0.04766,-0.04928 0.09479,-0.09914 0.138482,-0.15205 0.372246,-0.451075 0.595771,-1.029524 0.595771,-1.660165 0,-1.44147 -1.168135,-2.609605 -2.609605,-2.609605 -0.0901,0 -0.178998,0.0045 -0.266721,0.01361 -1.316066,0.133644 -2.342865,1.24464 -2.342865,2.596022 0,0.704643 0.280479,1.342737 0.734234,1.812223 -0.453763,0.469485 -0.734234,1.107579 -0.734234,1.812226 0,0.704648 0.280479,1.342738 0.734234,1.812223 -0.453763,0.469486 -0.734234,1.107576 -0.734234,1.812223 0,0.704648 0.280479,1.342738 0.734234,1.812227 -0.453763,0.469485 -0.734234,1.107575 -0.734234,1.812223 0,0.543092 0.166148,1.047148 0.449941,1.46479 -0.417641,-0.283767 -0.921694,-0.449945 -1.464786,-0.449945 -0.543095,0 -1.047152,0.166148 -1.464794,0.449945 0.283767,-0.417642 0.449946,-0.921698 0.449946,-1.46479 0,-0.704648 -0.280479,-1.342738 -0.734238,-1.812223 0.453763,-0.469489 0.734238,-1.107579 0.734238,-1.812227 0,-1.44147 -1.168139,-2.609601 -2.609605,-2.609601 -1.441471,0 -2.609605,1.168131 -2.609605,2.609601 0,0.704648 0.280478,1.342738 0.734237,1.812227 -0.453759,0.469485 -0.734237,1.107575 -0.734237,1.812223 0,0.543092 0.166185,1.047148 0.449945,1.46479 -0.417638,-0.283767 -0.921695,-0.449945 -1.464786,-0.449945 -0.543096,0 -1.047152,0.166148 -1.464786,0.449945 0.283767,-0.417642 0.449941,-0.921698 0.449941,-1.46479 0,-0.704648 -0.280479,-1.342738 -0.734234,-1.812223 0.453755,-0.469489 0.734234,-1.107579 0.734234,-1.812227 0,-0.704647 -0.280479,-1.342737 -0.734234,-1.812223 0.453755,-0.469485 0.734234,-1.107575 0.734234,-1.812223 0,-0.704647 -0.280479,-1.342741 -0.734234,-1.812226 0.453755,-0.469486 0.734234,-1.10758 0.734234,-1.812223 0,-1.441474 -1.168139,-2.609605 -2.609605,-2.609605 z m 25.37114,0 c -1.44147,0 -2.609601,1.168135 -2.609601,2.609605 0,0.543092 0.166186,1.047149 0.449942,1.464787 -0.417634,-0.283767 -0.921691,-0.449942 -1.464787,-0.449942 -1.441466,0 -2.609601,1.168139 -2.609601,2.609605 0,0.704648 0.280479,1.342738 0.734234,1.812223 -0.453763,0.469485 -0.734234,1.107576 -0.734234,1.812223 0,0.704648 0.280479,1.342741 0.734234,1.812227 -0.453763,0.469485 -0.734234,1.107579 -0.734234,1.812223 0,1.441466 1.168135,2.609605 2.609601,2.609605 0.543096,0 1.047153,-0.166148 1.464787,-0.449942 -0.283767,0.417634 -0.449942,0.921699 -0.449942,1.464786 0,1.441471 1.168131,2.609605 2.609601,2.609605 0.704648,0 1.342738,-0.280478 1.812227,-0.734237 0.469485,0.453763 1.107576,0.734237 1.812223,0.734237 0.704655,0 1.342741,-0.280478 1.812224,-0.734237 0.46949,0.453763 1.10758,0.734237 1.81223,0.734237 1.44147,0 2.6096,-1.168134 2.6096,-2.609605 0,-1.441462 -1.16813,-2.609601 -2.6096,-2.609601 -0.70465,0 -1.34274,0.280479 -1.81223,0.734234 -0.469483,-0.453763 -1.107569,-0.734234 -1.812224,-0.734234 -0.704647,0 -1.342738,0.280479 -1.812223,0.734234 -0.469489,-0.453763 -1.107579,-0.734234 -1.812227,-0.734234 -0.543091,0 -1.047148,0.166148 -1.464782,0.449942 0.283767,-0.417638 0.449941,-0.921699 0.449941,-1.46479 0,-0.543092 -0.166185,-1.047149 -0.449941,-1.464786 0.417634,0.283767 0.921691,0.449941 1.464782,0.449941 0.704648,0 1.342738,-0.280479 1.812227,-0.734234 0.469485,0.453759 1.107576,0.734234 1.812223,0.734234 0.704655,0 1.342741,-0.280479 1.812224,-0.734234 0.46949,0.453759 1.10758,0.734234 1.81223,0.734234 0.70464,0 1.34273,-0.280479 1.81222,-0.734234 0.46949,0.453759 1.10758,0.734234 1.81223,0.734234 1.44146,0 2.6096,-1.168139 2.6096,-2.609605 0,-0.704647 -0.28048,-1.342738 -0.73424,-1.812223 0.45377,-0.469485 0.73424,-1.107575 0.73424,-1.812223 0,-1.441466 -1.16814,-2.609605 -2.6096,-2.609605 -0.5431,0 -1.04716,0.166148 -1.46479,0.449942 0.28377,-0.417638 0.44994,-0.921695 0.44994,-1.464787 0,-1.44147 -1.16813,-2.609605 -2.6096,-2.609605 -0.70465,0 -1.34274,0.280479 -1.81223,0.734234 -0.469483,-0.453755 -1.107569,-0.734234 -1.812224,-0.734234 -0.704647,0 -1.342738,0.280479 -1.812223,0.734234 -0.469489,-0.453755 -1.107579,-0.734234 -1.812227,-0.734234 z m 18.122244,0 c -1.44147,0 -2.6096,1.168135 -2.6096,2.609605 0,0.704648 0.28048,1.342738 0.73424,1.812223 -0.45377,0.46949 -0.73424,1.10758 -0.73424,1.812227 0,0.704648 0.28048,1.342738 0.73424,1.812223 -0.45377,0.469485 -0.73424,1.107576 -0.73424,1.812223 0,0.704648 0.28048,1.342741 0.73424,1.812227 -0.45377,0.469485 -0.73424,1.107579 -0.73424,1.812223 0,0.704647 0.28048,1.342737 0.73424,1.812227 -0.45377,0.469485 -0.73424,1.107579 -0.73424,1.812222 0,1.441471 1.16813,2.609605 2.6096,2.609605 1.44147,0 2.60961,-1.168134 2.60961,-2.609605 0,-0.704643 -0.28048,-1.342737 -0.73424,-1.812222 0.45376,-0.46949 0.73424,-1.10758 0.73424,-1.812227 0,-0.704644 -0.28048,-1.342738 -0.73424,-1.812223 0.45376,-0.469486 0.73424,-1.107579 0.73424,-1.812227 0,-0.543092 -0.16615,-1.047148 -0.44995,-1.464786 0.41764,0.283767 0.9217,0.449941 1.46479,0.449941 1.44147,0 2.60961,-1.168131 2.60961,-2.609601 0,-0.543092 -0.16615,-1.047152 -0.44995,-1.46479 0.41764,0.283767 0.9217,0.449942 1.46479,0.449942 0.70465,0 1.34274,-0.280479 1.81223,-0.734234 0.46949,0.453759 1.10757,0.734234 1.81222,0.734234 0.5431,0 1.04715,-0.166148 1.46479,-0.449942 -0.28377,0.417638 -0.44995,0.921698 -0.44995,1.46479 0,1.44147 1.16814,2.609601 2.60961,2.609601 1.44146,0 2.6096,-1.168131 2.6096,-2.609601 0,-1.441466 -1.16814,-2.609605 -2.6096,-2.609605 -0.54309,0 -1.04715,0.166148 -1.46479,0.449942 0.28377,-0.417638 0.44995,-0.921695 0.44995,-1.464787 0,-1.44147 -1.16814,-2.609605 -2.60961,-2.609605 -0.70465,0 -1.34273,0.280479 -1.81222,0.734234 -0.46949,-0.453755 -1.10758,-0.734234 -1.81223,-0.734234 -1.44146,0 -2.6096,1.168135 -2.6096,2.609605 0,0.543092 0.16615,1.047149 0.44994,1.464787 -0.41764,-0.283767 -0.92169,-0.449942 -1.46479,-0.449942 -0.54309,0 -1.04715,0.166148 -1.46479,0.449942 0.28377,-0.417638 0.44995,-0.921695 0.44995,-1.464787 0,-1.44147 -1.16814,-2.609605 -2.60961,-2.609605 z m 25.37115,0 c -1.44147,0 -2.60961,1.168135 -2.60961,2.609605 0,0.543092 0.16615,1.047149 0.44995,1.464787 -0.41764,-0.283767 -0.9217,-0.449942 -1.46479,-0.449942 -1.44147,0 -2.60961,1.168139 -2.60961,2.609605 0,0.704648 0.28048,1.342738 0.73424,1.812223 -0.45376,0.469485 -0.73424,1.107576 -0.73424,1.812223 0,0.704648 0.28048,1.342741 0.73424,1.812227 -0.45376,0.469485 -0.73424,1.107579 -0.73424,1.812223 0,1.441466 1.16814,2.609605 2.60961,2.609605 0.54309,0 1.04715,-0.166148 1.46479,-0.449942 -0.28377,0.417634 -0.44995,0.921699 -0.44995,1.464786 0,1.441471 1.16814,2.609605 2.60961,2.609605 0.70465,0 1.34274,-0.280478 1.81222,-0.734237 0.46949,0.453763 1.10758,0.734237 1.81223,0.734237 0.70464,0 1.34273,-0.280478 1.81222,-0.734237 0.46949,0.453763 1.10757,0.734237 1.81222,0.734237 1.44147,0 2.60961,-1.168134 2.60961,-2.609605 0,-1.441462 -1.16814,-2.609601 -2.60961,-2.609601 -0.70465,0 -1.34273,0.280479 -1.81222,0.734234 -0.46949,-0.453763 -1.10758,-0.734234 -1.81222,-0.734234 -0.70465,0 -1.34274,0.280479 -1.81223,0.734234 -0.46948,-0.453763 -1.10757,-0.734234 -1.81222,-0.734234 -0.54309,0 -1.04715,0.166148 -1.46479,0.449942 0.28377,-0.417638 0.44994,-0.921699 0.44994,-1.46479 0,-0.543092 -0.16615,-1.047149 -0.44994,-1.464786 0.41764,0.283767 0.9217,0.449941 1.46479,0.449941 0.70465,0 1.34274,-0.280479 1.81222,-0.734234 0.46949,0.453759 1.10758,0.734234 1.81223,0.734234 0.70464,0 1.34273,-0.280479 1.81222,-0.734234 0.46949,0.453759 1.10757,0.734234 1.81222,0.734234 0.70466,0 1.34275,-0.280479 1.81223,-0.734234 0.46948,0.453759 1.10757,0.734234 1.81222,0.734234 1.44148,0 2.60961,-1.168139 2.60961,-2.609605 0,-0.704647 -0.28048,-1.342738 -0.73425,-1.812223 0.45377,-0.469485 0.73425,-1.107575 0.73425,-1.812223 0,-1.441466 -1.16813,-2.609605 -2.60961,-2.609605 -0.54309,0 -1.04714,0.166148 -1.46478,0.449942 0.28377,-0.417638 0.44994,-0.921695 0.44994,-1.464787 0,-1.44147 -1.16814,-2.609605 -2.60961,-2.609605 -0.70465,0 -1.34273,0.280479 -1.81222,0.734234 -0.46949,-0.453755 -1.10758,-0.734234 -1.81222,-0.734234 -0.70465,0 -1.34274,0.280479 -1.81223,0.734234 -0.46948,-0.453755 -1.10757,-0.734234 -1.81222,-0.734234 z M 31.242751,44.995067 c 0.469486,0.453759 1.107578,0.734234 1.812224,0.734234 0.704648,0 1.342738,-0.280479 1.812224,-0.734234 0.469487,0.453759 1.107577,0.734234 1.812225,0.734234 0.543092,0 1.04715,-0.166148 1.464788,-0.449942 -0.283767,0.417638 -0.449942,0.921698 -0.449942,1.46479 0,0.543092 0.166159,1.047148 0.449942,1.464786 -0.417638,-0.283767 -0.921696,-0.449941 -1.464788,-0.449941 -0.704648,0 -1.342738,0.280479 -1.812225,0.734234 -0.469486,-0.453759 -1.107576,-0.734234 -1.812224,-0.734234 -0.704646,0 -1.342738,0.280479 -1.812224,0.734234 -0.469487,-0.453759 -1.107578,-0.734234 -1.812225,-0.734234 -0.543093,0 -1.04715,0.166148 -1.464788,0.449941 0.283782,-0.417638 0.449943,-0.921694 0.449943,-1.464786 0,-0.543092 -0.16616,-1.047152 -0.449943,-1.46479 0.417638,0.283767 0.921695,0.449942 1.464788,0.449942 0.704647,0 1.342738,-0.280479 1.812225,-0.734234 z m 21.746693,0 c 0.469489,0.453759 1.107579,0.734234 1.812223,0.734234 0.704652,0 1.342742,-0.280479 1.812223,-0.734234 0.469493,0.453759 1.107579,0.734234 1.812231,0.734234 0.543088,0 1.047144,-0.166148 1.464786,-0.449942 -0.283767,0.417638 -0.449942,0.921698 -0.449942,1.46479 0,0.704648 0.280479,1.342738 0.734234,1.812223 -0.453762,0.469485 -0.734234,1.107576 -0.734234,1.812223 0,0.704648 0.280479,1.342741 0.734234,1.812227 -0.453762,0.469485 -0.734234,1.107579 -0.734234,1.812223 0,0.543091 0.166148,1.047152 0.449942,1.46479 -0.417642,-0.283767 -0.921698,-0.449942 -1.464786,-0.449942 -0.704652,0 -1.342738,0.280479 -1.812231,0.734234 -0.469481,-0.453763 -1.107571,-0.734234 -1.812223,-0.734234 -0.704644,0 -1.342734,0.280479 -1.812223,0.734234 -0.469485,-0.453763 -1.107575,-0.734234 -1.812223,-0.734234 -0.543091,0 -1.047152,0.166148 -1.46479,0.449942 0.283767,-0.417638 0.449946,-0.921699 0.449946,-1.46479 0,-0.704644 -0.280479,-1.342738 -0.734234,-1.812223 0.453759,-0.469486 0.734234,-1.107579 0.734234,-1.812227 0,-0.704647 -0.280479,-1.342738 -0.734234,-1.812223 0.453759,-0.469485 0.734234,-1.107575 0.734234,-1.812223 0,-0.543092 -0.166148,-1.047152 -0.449946,-1.46479 0.417638,0.283767 0.921699,0.449942 1.46479,0.449942 0.704648,0 1.342738,-0.280479 1.812223,-0.734234 z m 43.493389,0 c 0.469485,0.453759 1.107576,0.734234 1.812223,0.734234 0.704655,0 1.342741,-0.280479 1.812224,-0.734234 0.46949,0.453759 1.10758,0.734234 1.81223,0.734234 0.54309,0 1.04715,-0.166148 1.46479,-0.449942 -0.28377,0.417638 -0.44995,0.921698 -0.44995,1.46479 0,0.543092 0.16619,1.047148 0.44995,1.464786 -0.002,-0.0013 -0.004,-0.0029 -0.006,-0.0042 -0.41649,-0.281348 -0.91857,-0.445693 -1.45912,-0.445693 -0.70465,0 -1.34275,0.280478 -1.81223,0.734233 -0.469483,-0.453758 -1.107569,-0.734233 -1.812224,-0.734233 -0.704647,0 -1.342738,0.280478 -1.812227,0.734233 -0.04932,-0.04766 -0.09914,-0.09479 -0.15205,-0.138482 -0.451075,-0.372245 -1.029528,-0.59577 -1.660169,-0.59577 -0.540548,0 -1.042639,0.164334 -1.45912,0.445693 -0.0022,0.0013 -0.0038,0.0028 -0.0057,0.0042 0.283805,-0.417637 0.449949,-0.921694 0.449949,-1.464786 0,-0.543091 -0.166186,-1.047152 -0.449941,-1.46479 0.417634,0.283767 0.921691,0.449942 1.464786,0.449942 0.704644,0 1.342734,-0.280479 1.812223,-0.734234 z m 43.493387,0 c 0.46949,0.453759 1.10758,0.734234 1.81223,0.734234 0.70464,0 1.34273,-0.280479 1.81222,-0.734234 0.46949,0.453759 1.10757,0.734234 1.81222,0.734234 0.54309,0 1.04715,-0.166148 1.46479,-0.449942 -0.28377,0.417638 -0.44994,0.921698 -0.44994,1.46479 0,0.543092 0.16615,1.047148 0.44994,1.464786 -0.002,-0.0013 -0.004,-0.0029 -0.006,-0.0042 -0.41651,-0.281348 -0.91858,-0.445693 -1.45913,-0.445693 -0.70465,0 -1.34274,0.280478 -1.81222,0.734233 -0.46949,-0.453758 -1.10758,-0.734233 -1.81223,-0.734233 -0.70465,0 -1.34273,0.280478 -1.81223,0.734233 -0.0493,-0.04766 -0.0991,-0.09479 -0.15205,-0.138482 -0.45108,-0.372245 -1.02952,-0.59577 -1.66017,-0.59577 -0.54054,0 -1.04263,0.164334 -1.45912,0.445693 -0.002,0.0013 -0.004,0.0028 -0.006,0.0042 0.28381,-0.417637 0.44995,-0.921694 0.44995,-1.464786 0,-0.543091 -0.16615,-1.047152 -0.44994,-1.46479 0.41764,0.283767 0.9217,0.449942 1.46478,0.449942 0.70466,0 1.34275,-0.280479 1.81223,-0.734234 z m 21.7467,0 c 0.46948,0.453759 1.10757,0.734234 1.81222,0.734234 0.54309,0 1.04715,-0.166148 1.46479,-0.449942 -0.28377,0.417638 -0.44995,0.921698 -0.44995,1.46479 0,1.44147 1.16814,2.609601 2.60961,2.609601 0.54309,0 1.04714,-0.166148 1.46479,-0.449941 -0.28377,0.417638 -0.44995,0.921694 -0.44995,1.464786 0,0.704648 0.28048,1.342741 0.73425,1.812227 -0.45377,0.469485 -0.73425,1.107579 -0.73425,1.812223 0,0.543091 0.16615,1.047152 0.44995,1.46479 -0.41765,-0.283767 -0.9217,-0.449942 -1.46479,-0.449942 -0.70465,0 -1.34274,0.280479 -1.81222,0.734234 -0.46949,-0.453763 -1.10758,-0.734234 -1.81223,-0.734234 -0.70465,0 -1.34274,0.280479 -1.81222,0.734234 -0.46949,-0.453763 -1.10758,-0.734234 -1.81223,-0.734234 -0.54309,0 -1.04714,0.166148 -1.46478,0.449942 0.28376,-0.417638 0.44994,-0.921699 0.44994,-1.46479 0,-0.704644 -0.28048,-1.342738 -0.73424,-1.812223 0.45376,-0.469486 0.73424,-1.107579 0.73424,-1.812227 0,-0.704647 -0.28048,-1.342738 -0.73424,-1.812223 0.45376,-0.469485 0.73424,-1.107575 0.73424,-1.812223 0,-0.543092 -0.16615,-1.047152 -0.44994,-1.46479 0.41764,0.283767 0.92169,0.449942 1.46478,0.449942 0.70465,0 1.34274,-0.280479 1.81223,-0.734234 z" />
</svg>
